<?xml version="1.0" standalone="no"?><!DOCTYPE svg PUBLIC "-//W3C//DTD SVG 1.1//EN" "http://www.w3.org/Graphics/SVG/1.1/DTD/svg11.dtd"><svg t="1680943750667" class="icon" viewBox="0 0 1024 1024" version="1.1" xmlns="http://www.w3.org/2000/svg" p-id="4053" xmlns:xlink="http://www.w3.org/1999/xlink" width="200" height="200"><path d="M712.66726 803.00183c0.793576 5.355359 2.027459 9.712349 3.701649 13.065848l2.616241-13.076088-6.31789 0.01024z m7.628571 120.301031v-47.076988l-3.926922-41.849624 0.015359 0.240632 3.911563 88.68598z m-473.201804-313.882424l1.3414-7.157545c5.816146-30.585962 12.277392-56.523104 19.378619-77.821665-5.232483 47.947362-10.029779 83.694129-14.386769 107.235183-1.740748 34.871274-4.797296 74.104657-9.154285 117.695029 1.740748-8.719098 5.232483-43.155185 10.459846-103.313381 4.362109-41.844505 10.464966-75.415338 18.308571-100.697139l1.31068 3.926922c-0.870374 11.33022-1.310681 20.484505-1.31068 27.462856l6.538044-13.081207 1.31068 7.848724c0 6.102857-2.616242 16.127516-7.848724 30.079098h-1.305561c0 1.740748 0.870374 3.051428 2.611122 3.921802l2.621361 1.310681c5.227363-39.233383 11.765407-71.058348 19.614132-95.469776-2.611122 47.952481-4.797296 83.699249-6.538044 107.235183-4.362109 29.643911-8.283911 51.439097-11.770527 65.390678-8.719098 58.412328-15.257142 118.570523-19.614132 180.469466 13.076088-109.851424 20.049319-165.217443 20.919693-166.087817l2.616241 3.926922v10.459846l11.775647-77.156085-27.467976 256.31999 3.921802-22.230373-3.921802 90.232173c16.567823-106.364809 27.903163-186.572323 34.0009-240.627661 8.719098-51.439097 15.692329-90.232173 20.924812-116.389468l9.154285-6.538044c0-17.438197 3.486615-36.617141 10.464967-57.541954 7.843605-27.898043 18.303451-40.974131 31.384658-39.233383l60.158195 7.848725c-0.870374 0 37.487515-10.459846 115.078788-31.384659 5.232483-0.870374 19.619251-6.978351 43.160305-18.30857 17.433077-7.848725 32.255032-11.33534 44.460746-10.464966h7.843605c-3.481496 64.515185-1.305561 169.569313 6.538044 315.167505 0.870374 46.211734 1.310681 81.083008 1.31068 104.624061 0 13.946462 2.611122 37.922702 7.843605 71.923602 5.232483 30.514285 7.848725 54.490525 7.848725 71.928722v-211.859244c0-3.481496 1.740748-5.66255 5.232483-6.538044v2.616242c0 4.362109-1.310681 13.076088-3.926922 26.157295l3.926922 6.538044c3.481496 104.618941 6.102857 161.725708 7.843604 171.310061 0 0.875494-0.870374-49.688109-2.611121-151.69593-1.745868-60.158195-0.870374-110.281492 2.611121-150.390368l10.464966 268.090517c4.356989-80.207514 6.538044-127.289621 6.538044-141.236082 0-1.745868-0.435187-3.051428-1.31068-3.926923 0.870374-7.843605 1.310681-15.257142 1.31068-22.230373l-3.921802 5.232483-2.616242-2.616241V795.142866l1.305561-3.921803 5.232483 2.611122v-5.227363l-3.921802-6.538044c-0.870374-7.848725 0.435187-17.438197 3.921802-28.773537l1.305561-1.305561 5.232483 2.611122-5.232483 19.619251 6.538044-7.843604-6.538044 13.076087v47.076988c3.486615-22.66556 5.66767-40.103757 6.538044-52.309471v0.051199l3.926922 28.722338 3.921803-32.695339c-0.936932 11.734688-0.99325 21.575033-0.163835 29.521034l0.363509 3.01559 6.338369-5.073768a60.173555 60.173555 0 0 1-5.084007-20.525464l-0.148476-4.32115c0-14.821955 1.745868-25.722108 5.232483-32.69534 2.616242 21.795186 4.362109 56.01624 5.232483 102.658041 0.870374 46.641801 3.051428 82.173535 6.538044 106.584962 0-5.232483-0.435187-15.257142-1.305561-30.079097-1.745868-12.205714-2.181055-22.235493-1.31068-30.079098 2.616242-52.309471 4.797296-95.029469 6.538044-128.159995l-1.305561-6.538044 1.305561-3.921802-1.305561-3.926923 3.921802-18.30857-3.921802-7.843605c0-3.486615 0.435187-11.775647 1.305561-24.846615l3.926922 3.921803c3.481496 30.514285 6.102857 57.106767 7.843605 79.772326l-2.611122 2.611122-1.228763 3.66069c0.179195 0.911333 0.506865 3.66581 0.972771 8.268552l0.240632 2.426807v-3.870603l1.254363 6.66604c3.138466 18.201054 4.884333 39.474016 5.232483 63.813765l0.061438 9.272042 1.310681-39.228263c4.356989 84.564503 6.102857 148.209314 5.232483 190.929312 2.611122-69.747668 3.921802-106.364809 3.921802-109.851424l-2.616242-2.611122v-19.619252l2.611122-3.921802-2.611122-11.775647 3.921803-28.768417 1.31068 41.849625 3.921803-13.076088c-1.740748-5.232483-1.740748-10.029779 0-14.386768-5.232483-19.178945-4.797296-40.103757 1.305561-62.769317l-1.305561 3.921802-1.305561-6.538044 1.960901-1.966021c1.305561-1.305561 1.960901-2.396088 1.960901-3.266462l-1.960901-1.960901-1.960901-1.960901 1.305561-1.310681v-6.538044l5.232483-3.921802c-3.486615 0-5.232483-0.435187-5.232483-1.310681v-10.459846a34.835435 34.835435 0 0 0 7.848724-11.770527l-2.616241-2.611121c3.481496-20.929932 5.66767-36.622261 6.538044-47.082108 0-2.616242-0.65534-7.193384-1.960901-13.731428-1.310681-6.538044-1.960901-11.555493-1.960902-15.042109 0-23.535934 3.051428-58.847515 9.154286-105.929622 6.973231-60.153075 10.895033-97.205404 11.765407-111.151865 12.205714-163.036389 24.851734-276.809616 37.927822-341.3248-4.362109-22.67068-8.719098-44.901053-13.076088-66.69624C812.273872 16.158235 800.068158 0.030719 784.375829 0.030719c-2.616242 0-5.232483 0.435187-7.848725 1.305561l-10.459846 11.775647-10.464966-7.848725v2.611122l-5.232483 1.31068-1.305561 5.232483-2.611122-3.926922-7.848724 5.232483a16.414228 16.414228 0 0 1-3.926922-6.538044h-3.921803l-7.848724-2.611121-1.305561 1.305561c-0.870374 2.611122-1.740748 4.792176-2.611122 6.538043-3.491735-3.486615-8.724218-5.232483-15.697449-5.232483h-5.232483V14.417487l-5.227363-5.232483c-26.157295 32.255032-41.849625 91.978041-47.082108 179.163906-0.870374 9.589472-1.305561 72.793976-1.30556 189.623751-40.103757 8.713979-68.877294 14.386768-86.310371 16.99789-31.384658 2.616242-62.33925 5.232483-92.853534 7.848724-37.487515 3.481496-66.261052 11.33022-86.310371 23.535934 17.438197-72.358789 32.255032-123.362699 44.460746-153.006609l-2.611122-2.611122v-5.232483l3.921803-2.616242 3.921802 2.611122c-2.611122-6.097737-3.921802-11.765407-3.921802-16.99789 0-3.481496 2.611122-7.843605 7.843604-13.076088 2.616242-12.205714 4.797296-21.359999 6.543164-27.462856-0.870374-0.870374-2.181055 0.435187-3.926922 3.921802 11.33534-74.104657 20.489625-120.316391 27.462856-138.619841-1.740748-21.795186-7.408418-40.538944-16.99789-56.231273l-2.616242-2.616242-1.31068 2.611122v3.926922h-1.305561L435.202304 10.490565l-1.305561 6.543164-5.232483-3.926922-16.99789 2.616241-1.310681-1.305561-5.232483-3.926922v2.616242h-3.921802l-2.611122 2.616241-1.31068 2.616242-3.921803 2.611121-7.848724-3.916682-5.232483-6.543164-26.152176 6.543164-2.616241-1.310681c-0.870374 0-1.305561-0.435187-1.305561-1.305561-20.924812 1.740748-36.617141 12.205714-47.082108 31.384659-23.541054 40.974131-48.382549 153.876984-74.544963 338.708559-22.66556 166.517884-33.99578 286.393968-33.99578 359.628251l-0.01024-0.061438 0.701419-8.222474c7.382819-87.365059 14.770757-141.522794 22.153575-162.468086l0.69118-1.868744 1.31068 2.611122v6.543164c0 19.178945-3.271582 48.602702-9.809626 88.271272-6.538044 39.66857-9.369319 69.967821-8.498945 90.892633v14.386768c11.33022-81.958501 16.99789-123.803006 16.997891-125.548873 0 5.232483 0.435187 8.719098 1.31068 10.464966l-1.31068 19.614131c6.978351-65.385558 15.257142-107.235183 24.846614-125.543753 0 4.356989-0.435187 12.646021-1.305561 24.846614-0.870374 12.205714-1.305561 21.795186-1.305561 28.773537 0.870374-2.616242 1.740748-12.646021 2.611122-30.079098 0.870374-12.205714 3.926922-21.795186 9.154286-28.773536l3.926922 9.154285a4930.65784 4930.65784 0 0 0-7.782167 45.259442l-1.167325 7.029549z" fill="#1afa29" p-id="4054"></path></svg>